<?xml version="1.0" encoding="UTF-8" standalone="no"?><svg width="1456" height="2821" viewBox="0 0 1456 2821" fill="none" xmlns="http://www.w3.org/2000/svg">
<path d="M725.027 464.702C853.213 464.702 957.129 360.786 957.129 232.599C957.129 104.413 853.213 0.49707 725.027 0.49707C596.84 0.49707 492.924 104.413 492.924 232.599C492.924 360.786 596.84 464.702 725.027 464.702Z" fill="white"/>
<path d="M1177.99 766.543C1136.17 644.862 1071.56 571.501 985.462 547.476C919.731 732.96 921.664 727.506 887.496 823.926C920.966 1097.53 896.678 939.977 1001.05 1547.4C1003.8 1563.37 999.383 1579.75 988.941 1592.14C978.505 1604.54 963.126 1611.7 946.918 1611.7C836.246 1611.7 613.882 1611.7 503.142 1611.7C486.946 1611.7 471.573 1604.49 461.144 1592.1C450.714 1579.71 446.269 1563.36 449.012 1547.39C553.35 940.171 529.306 1095.86 561.784 830.36C486.123 616.866 495.991 644.694 461.817 548.28C377.104 573.097 313.437 646.171 272.074 766.53C191.538 1000.87 8.67762 1501.18 6.8386 1506.2C-14.4005 1564.29 15.4726 1628.6 73.5605 1649.84C131.58 1671.07 195.952 1641.24 217.197 1583.11C218.755 1578.85 350.073 1219.56 439.767 965.649C433.752 1014.85 452.722 911.457 280.696 1799.64C277.161 1817.87 281.968 1836.72 293.781 1851.06C305.594 1865.39 323.199 1873.75 341.77 1873.75C365.889 1873.75 394.827 1873.75 427.225 1873.75V2686.12C427.225 2760.34 487.389 2820.51 561.616 2820.51C635.844 2820.51 696.008 2760.35 696.008 2686.12V1873.75C715.327 1873.75 734.714 1873.75 754.039 1873.75V2686.12C754.039 2760.34 814.203 2820.51 888.431 2820.51C962.658 2820.51 1022.82 2760.35 1022.82 2686.12V1873.75C1055.23 1873.75 1084.16 1873.75 1108.28 1873.75C1126.86 1873.75 1144.47 1865.44 1156.29 1851.1C1168.11 1836.76 1172.89 1817.89 1169.35 1799.64C997.319 911.426 1016.26 1014.57 1010.17 964.701C1079.63 1159.91 1181.81 1438.65 1237.15 1589.12C1258.71 1647.73 1323.6 1677.81 1382.25 1656.37C1439.77 1635.34 1469.34 1571.55 1448.19 1514.06C1379.75 1327.98 1238.17 941.692 1177.99 766.543Z" fill="white"/>
<path d="M551 538.686C601.482 681.131 597.817 670.789 648.206 812.979C706.823 812.979 746.347 812.979 798.774 812.979C827.55 731.788 866.126 622.931 895.98 538.686H551Z" fill="white"/>
</svg>
