<?xml version="1.0" encoding="UTF-8" standalone="no"?><svg xmlns="http://www.w3.org/2000/svg" width="107" height="153" viewBox="0 0 107 153" fill="none">
<path d="M103.813 130.624H55.6863C55.0694 130.584 54.4933 130.302 54.0835 129.839C53.6738 129.377 53.4636 128.77 53.4988 128.153C53.4636 127.536 53.6738 126.93 54.0835 126.467C54.4933 126.004 55.0693 125.722 55.6863 125.682H101.624V110.858C101.589 110.24 101.799 109.634 102.209 109.171C102.619 108.708 103.196 108.427 103.813 108.387C104.429 108.427 105.006 108.709 105.415 109.172C105.825 109.635 106.036 110.241 106.001 110.858V128.153C106.036 128.77 105.825 129.376 105.415 129.838C105.005 130.301 104.429 130.584 103.813 130.624Z" fill="#000000"/>
<path d="M103.813 44.149C103.196 44.1097 102.619 43.8279 102.209 43.3653C101.799 42.9026 101.589 42.2965 101.624 41.6793V26.8557H55.6863C55.0694 26.8158 54.4933 26.5337 54.0835 26.0709C53.6738 25.608 53.4636 25.0018 53.4988 24.3846C53.4636 23.7674 53.6738 23.1615 54.0835 22.6986C54.4933 22.2357 55.0694 21.9533 55.6863 21.9134H103.812C104.428 21.9535 105.004 22.2358 105.414 22.6986C105.824 23.1615 106.034 23.7675 105.999 24.3846V41.6793C106.034 42.2963 105.823 42.9023 105.414 43.3649C105.004 43.8275 104.429 44.1093 103.813 44.149Z" fill="#000000"/>
<path d="M103.813 113.329H55.6863C55.0694 113.29 54.4933 113.007 54.0835 112.544C53.6738 112.082 53.4636 111.476 53.4988 110.858C53.4636 110.241 53.6738 109.635 54.0835 109.172C54.4933 108.71 55.0694 108.428 55.6863 108.388H101.624V88.6213C101.589 88.0041 101.8 87.3983 102.21 86.9356C102.619 86.4728 103.196 86.1908 103.813 86.1512C104.429 86.191 105.005 86.4731 105.415 86.9358C105.825 87.3984 106.036 88.0042 106.001 88.6213V110.858C106.036 111.475 105.825 112.082 105.415 112.544C105.005 113.007 104.429 113.289 103.813 113.329Z" fill="#000000"/>
<path d="M103.813 66.3875C103.196 66.348 102.619 66.0662 102.209 65.6034C101.799 65.1406 101.589 64.5345 101.624 63.9173V44.1506H55.6863C55.0697 44.1111 54.4937 43.8294 54.084 43.3669C53.6742 42.9045 53.4639 42.2986 53.4989 41.6817C53.4635 41.0643 53.6735 40.4578 54.0832 39.9947C54.493 39.5315 55.0692 39.2492 55.6863 39.2092H103.812C104.429 39.2494 105.005 39.5319 105.414 39.995C105.824 40.4582 106.034 41.0644 105.999 41.6817V63.9158C106.034 64.533 105.824 65.1391 105.414 65.6021C105.005 66.0651 104.43 66.3474 103.813 66.3875Z" fill="#000000"/>
<path d="M103.813 91.0925H55.6863C55.0694 91.0529 54.4933 90.7709 54.0835 90.3081C53.6738 89.8454 53.4636 89.2393 53.4988 88.6222C53.4636 88.005 53.6738 87.3989 54.0835 86.936C54.4933 86.4732 55.0694 86.1911 55.6863 86.1512H101.624V66.3861H55.6863C55.0693 66.346 54.4933 66.0637 54.0835 65.6007C53.6738 65.1377 53.4636 64.5315 53.4988 63.9142C53.4638 63.2972 53.6742 62.6914 54.0839 62.2288C54.4937 61.7662 55.0696 61.4845 55.6863 61.4448H103.812C104.428 61.4845 105.004 61.7662 105.414 62.2288C105.823 62.6914 106.034 63.2973 105.999 63.9142V88.6207C106.034 89.2379 105.824 89.844 105.414 90.307C105.005 90.77 104.429 91.0525 103.813 91.0925Z" fill="#000000"/>
<path d="M55.6863 130.624L29.4358 130.625C28.819 130.585 28.2432 130.302 27.8336 129.839C27.424 129.376 27.2139 128.77 27.2491 128.153C27.2139 127.536 27.424 126.93 27.8336 126.467C28.2432 126.004 28.819 125.722 29.4358 125.682H53.499V26.8573H29.4358C28.8188 26.8174 28.2427 26.5352 27.8331 26.0721C27.4234 25.6091 27.2135 25.0027 27.2491 24.3855C27.2139 23.7685 27.424 23.1626 27.8336 22.6999C28.2432 22.2371 28.8191 21.955 29.4358 21.9151H55.6857C56.3026 21.9548 56.8787 22.2368 57.2886 22.6995C57.6985 23.1622 57.9089 23.7683 57.8739 24.3855V128.15C57.9091 128.768 57.6989 129.374 57.289 129.837C56.8791 130.3 56.3028 130.582 55.6857 130.622" fill="#000000"/>
<path d="M5.375 125.683H27.2499V26.8557H5.375V125.683ZM29.4366 130.624H3.18685C2.57003 130.584 1.99396 130.301 1.58432 129.839C1.17468 129.376 0.964567 128.77 0.999984 128.153V24.3846C0.964367 23.7674 1.17446 23.1612 1.58414 22.6982C1.99382 22.2353 2.56996 21.9531 3.18685 21.9134H29.4366C30.0536 21.9531 30.6297 22.2353 31.0395 22.6982C31.4493 23.1612 31.6594 23.7673 31.624 24.3846V128.153C31.6592 128.77 31.4491 129.376 31.0393 129.839C30.6296 130.301 30.0535 130.584 29.4366 130.624Z" fill="#000000"/>
<path d="M3.18759 140.507C2.57077 140.467 1.9947 140.185 1.58506 139.722C1.17542 139.259 0.965305 138.653 1.00072 138.036L0.999984 128.153C0.964362 127.535 1.17503 126.93 1.58469 126.467C1.99436 126.004 2.57063 125.721 3.18759 125.681C3.80467 125.721 4.38095 126.004 4.79085 126.467C5.20075 126.93 5.41095 127.536 5.37574 128.153V138.036C5.41075 138.653 5.20036 139.259 4.79048 139.722C4.3806 140.185 3.80453 140.467 3.18759 140.507Z" fill="#000000"/>
<path d="M103.813 140.507C103.196 140.467 102.62 140.185 102.21 139.722C101.8 139.259 101.589 138.653 101.624 138.036V128.153C101.589 127.536 101.8 126.929 102.21 126.466C102.62 126.003 103.196 125.721 103.813 125.681C104.43 125.721 105.006 126.004 105.416 126.467C105.826 126.93 106.036 127.535 106.001 128.153L106 138.036C106.035 138.653 105.825 139.259 105.416 139.722C105.006 140.185 104.43 140.467 103.813 140.507Z" fill="#000000"/>
<path d="M38.1864 86.1504C37.5698 86.1105 36.9939 85.8285 36.5843 85.3658C36.1747 84.9031 35.9645 84.2972 35.9997 83.6802V73.796C35.9645 73.179 36.1747 72.5731 36.5843 72.1104C36.9939 71.6477 37.5698 71.3657 38.1864 71.3258C38.8035 71.3653 39.3799 71.6471 39.7901 72.1099C40.2002 72.5726 40.411 73.1786 40.3762 73.796V83.6802C40.4112 84.2977 40.2006 84.9038 39.7904 85.3665C39.3802 85.8293 38.8036 86.1111 38.1864 86.1504Z" fill="#000000"/>
<path d="M20.6866 86.1504C20.0697 86.1109 19.4933 85.8291 19.0834 85.3663C18.6734 84.9036 18.4631 84.2975 18.4983 83.6802V73.796C18.4633 73.1788 18.6736 72.5728 19.0835 72.11C19.4934 71.6473 20.0697 71.3655 20.6866 71.3258C21.3035 71.3655 21.8796 71.6473 22.2895 72.11C22.6994 72.5728 22.9098 73.1788 22.8748 73.796V83.6802C22.91 84.2975 22.6996 84.9036 22.2897 85.3663C21.8798 85.8291 21.3036 86.1109 20.6866 86.1504Z" fill="#000000"/>
<path d="M9.47183 0.999738H16.2718V4.54427H13.5499V7.90312H16.0974V11.2725H13.5499V15.1673H16.5432V18.7126H9.47183V0.999738ZM25.9779 0.999738L24.5542 8.83304L26.7041 18.7126H22.9267C22.4051 16.587 21.9919 14.4362 21.6887 12.2686C21.5854 13.3847 21.4434 14.5699 21.2624 15.8244L20.8753 18.7126H16.9018L18.3744 8.83379L16.9018 1.00049H20.8445C20.9157 1.48913 21.0577 2.30228 21.2707 3.43994C21.4386 4.30797 21.5774 5.10307 21.6872 5.82526L22.5592 1.00049L25.9779 0.999738ZM35.4999 0.999738V4.54427H33.0779V18.7126H28.9998V4.54427H26.5883V0.999738H35.4999ZM36.4298 0.999738H56.6907V4.54427H40.5078V7.90312H56.5193V11.2725H40.5078V15.1673H56.962V18.7126H36.4298V0.999738ZM67.2395 0.999738V18.7126H63.6651L61.5437 10.6606V18.7126H58.134V0.999738H61.5437L63.8297 8.97512V0.999738H67.2395ZM68.8767 0.999738H71.9279C73.2671 0.942526 74.6084 1.04524 75.9232 1.3057C76.5452 1.46327 77.1003 1.81606 77.5071 2.3123C77.8623 2.76559 78.0952 3.30242 78.1836 3.87145C78.3003 4.99257 78.3455 6.11997 78.319 7.24683V13.4503C78.3579 14.5172 78.2914 15.5854 78.1205 16.6393C78.0205 17.1179 77.7799 17.5558 77.4297 17.897C77.0832 18.2087 76.6631 18.427 76.2089 18.5314C75.4883 18.6734 74.754 18.734 74.0199 18.7119H68.8767V0.999738ZM72.9555 4.03307V15.6853C73.5433 15.6853 73.9049 15.5522 74.0402 15.2861C74.2289 14.5786 74.2977 13.8445 74.2439 13.1143V6.23271C74.2596 5.71755 74.2369 5.20193 74.1763 4.69011C74.1615 4.59035 74.1264 4.49469 74.0732 4.40908C74.0199 4.32346 73.9495 4.24972 73.8666 4.19245C73.5818 4.06128 73.2679 4.00637 72.9555 4.03307ZM79.8427 1.00274H86.6427V4.54727H83.9207V7.90612H86.4683V11.2755H83.9207V15.1703H86.914V18.7126H79.8419L79.8427 1.00274ZM88.086 1.00274H91.1372C92.4764 0.945533 93.8176 1.04825 95.1325 1.30871C95.7545 1.46628 96.3096 1.81907 96.7164 2.31531C97.0715 2.7686 97.3045 3.30542 97.3929 3.87445C97.5095 4.99557 97.5547 6.12298 97.5282 7.24984V13.4533C97.5671 14.5203 97.5007 15.5884 97.3298 16.6423C97.2279 17.1204 96.9858 17.5572 96.6344 17.897C96.288 18.2087 95.8678 18.427 95.4137 18.5314C94.6931 18.6734 93.9588 18.734 93.2247 18.7119H88.0815L88.086 1.00274ZM92.164 4.03307V15.6853C92.7518 15.6853 93.1134 15.5522 93.2487 15.2861C93.4374 14.5786 93.5062 13.8445 93.4524 13.1143V6.23271C93.4681 5.71755 93.4455 5.20193 93.3848 4.69011C93.37 4.59035 93.3349 4.49469 93.2817 4.40908C93.2284 4.32346 93.1581 4.24972 93.0751 4.19245C92.7901 4.06115 92.4766 4.00623 92.164 4.03307Z" fill="#000000"/>
<path d="M25.7306 133.919L23.919 151.628H18.8239C18.3588 148.908 17.9486 145.816 17.5933 142.351C17.432 143.831 17.0544 146.924 16.4605 151.628H11.3947L9.57331 133.919H13.5348L13.9513 140.1L14.3775 146.062C14.5278 142.977 14.9024 138.929 15.5013 133.919H19.744C19.8021 134.436 19.9507 136.384 20.1897 139.76L20.6355 146.489C20.8615 142.207 21.2394 138.017 21.7691 133.919L25.7306 133.919ZM33.3928 133.919L35.7269 151.628H31.5519L31.3482 148.445H29.8861L29.644 151.628H25.4202L27.4934 133.919H33.3928ZM31.2324 145.305C31.0259 143.3 30.8192 140.824 30.6122 137.876C30.1988 141.26 29.9405 143.736 29.8372 145.305H31.2324ZM36.4245 133.919H39.3111C40.6192 133.872 41.9287 133.957 43.22 134.171C43.5694 134.263 43.8968 134.425 44.1829 134.645C44.469 134.866 44.708 135.142 44.8858 135.457C45.3882 136.48 45.6105 137.618 45.53 138.755C45.6124 139.706 45.4558 140.662 45.0744 141.537C44.8594 141.805 44.5865 142.021 44.2761 142.169C43.9658 142.316 43.6261 142.392 43.2824 142.39C43.9085 142.51 44.4793 142.828 44.9098 143.298C45.1531 143.607 45.3295 143.963 45.4277 144.343C45.5231 145.213 45.557 146.088 45.5292 146.963V151.628H41.7421V145.742C41.7923 145.148 41.7248 144.549 41.5437 143.981C41.4114 143.755 41.0643 143.642 40.5025 143.642V151.628H36.4245V133.919ZM40.5025 140.888C40.8381 140.918 41.1749 140.844 41.4662 140.675C41.6501 140.532 41.7421 140.071 41.7421 139.291V138.313C41.7907 137.925 41.6961 137.532 41.476 137.208C41.1959 137.002 40.8484 136.908 40.5025 136.946V140.888ZM47.1086 133.919H50.1598C51.499 133.862 52.8402 133.965 54.1551 134.225C54.7771 134.383 55.3322 134.736 55.739 135.232C56.0941 135.685 56.3271 136.222 56.4155 136.791C56.5322 137.912 56.5774 139.039 56.5508 140.166V146.37C56.59 147.436 56.5241 148.503 56.3539 149.556C56.2533 150.034 56.0123 150.472 55.6616 150.813C55.3151 151.124 54.895 151.343 54.4408 151.447C53.7202 151.589 52.9859 151.65 52.2518 151.628H47.1086V133.919ZM51.1866 148.602C51.7745 148.602 52.136 148.469 52.2713 148.203C52.46 147.495 52.5289 146.761 52.4751 146.031V139.149C52.4907 138.634 52.4681 138.118 52.4074 137.607C52.3927 137.507 52.3576 137.411 52.3043 137.326C52.251 137.24 52.1807 137.166 52.0977 137.109C51.8133 136.977 51.4993 136.92 51.1866 136.946V148.602ZM58.0738 133.919H60.9604C62.2685 133.872 63.578 133.957 64.8693 134.171C65.2187 134.263 65.5461 134.425 65.8322 134.645C66.1183 134.866 66.3573 135.142 66.5351 135.457C67.0376 136.48 67.2598 137.618 67.1793 138.755C67.2617 139.706 67.1051 140.662 66.7238 141.537C66.5087 141.805 66.2358 142.021 65.9254 142.169C65.6151 142.316 65.2754 142.392 64.9317 142.39C65.5578 142.51 66.1286 142.828 66.5592 143.298C66.8025 143.607 66.9788 143.963 67.0771 144.343C67.1724 145.213 67.2064 146.088 67.1786 146.963V151.628H63.3914V145.742C63.4416 145.148 63.3742 144.549 63.193 143.981C63.0607 143.755 62.7136 143.642 62.1519 143.642V151.628H58.0738V133.919ZM62.1519 140.888C62.4875 140.918 62.8242 140.844 63.1156 140.675C63.2995 140.532 63.3914 140.071 63.3914 139.291V138.313C63.44 137.925 63.3454 137.532 63.1253 137.208C62.8453 137.002 62.4978 136.908 62.1519 136.946V140.888ZM78.0761 144.287C78.0761 146.066 78.0391 147.326 77.9649 148.067C77.8968 148.789 77.6577 149.485 77.2673 150.096C76.8814 150.706 76.3328 151.196 75.6834 151.51C74.9569 151.852 74.161 152.021 73.3584 152.003C72.5794 152.015 71.8072 151.856 71.0965 151.537C70.4373 151.234 69.8782 150.75 69.4848 150.14C69.0832 149.534 68.8341 148.839 68.7587 148.116C68.681 147.387 68.6422 146.11 68.6422 144.287V141.256C68.6422 139.477 68.6792 138.217 68.7534 137.477C68.8214 136.754 69.0606 136.058 69.451 135.447C69.8373 134.838 70.3859 134.35 71.0349 134.036C71.7614 133.694 72.5572 133.526 73.3599 133.543C74.1389 133.531 74.911 133.69 75.6218 134.009C76.2813 134.311 76.8409 134.795 77.235 135.404C77.6366 136.01 77.8857 136.704 77.9611 137.428C78.0388 138.157 78.0776 139.433 78.0776 141.257L78.0761 144.287ZM73.9951 138.467C74.0227 137.937 73.982 137.407 73.8741 136.888C73.8429 136.782 73.7763 136.69 73.6854 136.627C73.5946 136.565 73.485 136.535 73.3749 136.544C73.2756 136.541 73.1774 136.565 73.091 136.614C73.0047 136.664 72.9336 136.736 72.8856 136.823C72.7267 137.355 72.6696 137.913 72.7172 138.467V146.736C72.6879 147.373 72.7252 148.011 72.8284 148.639C72.8577 148.751 72.926 148.849 73.0209 148.915C73.1158 148.981 73.2312 149.012 73.3464 149C73.4706 149.008 73.5935 148.97 73.6917 148.893C73.7899 148.817 73.8566 148.707 73.8793 148.585C73.9841 147.931 74.0229 147.268 73.9951 146.607V138.467ZM79.5969 133.919H83.6651C84.6503 133.881 85.6354 133.995 86.5855 134.258C87.2704 134.503 87.8412 134.992 88.1889 135.631C88.6683 136.673 88.8782 137.818 88.7993 138.962C88.8642 139.71 88.7148 140.462 88.3686 141.129C87.927 141.628 87.3268 141.961 86.669 142.07C87.4415 142.2 88.1311 142.631 88.5866 143.268C88.9744 144.065 89.1479 144.949 89.0902 145.834V147.475C89.135 148.374 89.0124 149.275 88.7287 150.129C88.6275 150.395 88.4725 150.638 88.2733 150.841C88.0741 151.045 87.835 151.205 87.571 151.311C86.5091 151.585 85.411 151.692 84.3161 151.628H79.5969V133.919ZM83.6749 140.888C83.8493 140.881 83.9849 140.877 84.0816 140.877C84.4825 140.877 84.7376 140.766 84.8468 140.543C85.0014 139.919 85.057 139.275 85.0114 138.634C85.033 138.24 84.9873 137.846 84.8761 137.468C84.8486 137.378 84.8031 137.294 84.7424 137.222C84.6817 137.149 84.607 137.09 84.5228 137.047C84.247 136.97 83.9611 136.936 83.6749 136.946V140.888ZM83.6749 148.601C84.0667 148.638 84.4584 148.529 84.7747 148.295C84.984 147.88 85.0666 147.412 85.0122 146.949V145.296C85.0688 144.825 84.9952 144.348 84.7995 143.917C84.467 143.7 84.0702 143.602 83.6749 143.642V148.601ZM90.5523 133.919H97.3523V137.464H94.6304V140.823H97.1779V144.188H94.6304V148.083H97.6237V151.628H90.5523V133.919Z" fill="#000000"/>
</svg>