<?xml version="1.0" encoding="UTF-8" standalone="no"?><svg xmlns="http://www.w3.org/2000/svg" viewBox="0 0 64 64"><path data-name="layer2" d="M0 1v6h13v33H0v23h19V1zm9 54a4 4 0 114-4 4 4 0 01-4 4z" fill="#ffffff"/><path data-name="layer2" fill="#ffffff" d="M0 11h9v25H0zM23 1v6h13v33H23v23h19V1zm9 54a4 4 0 114-4 4 4 0 01-4 4z"/><path data-name="layer2" fill="#ffffff" d="M23 11h9v25h-9z"/><path data-name="layer1" d="M46 1v6h13v33H46v23h18V1zm9 54a4 4 0 114-4 4 4 0 01-4 4z" fill="#ffffff"/><path data-name="layer1" fill="#ffffff" d="M46 11h9v25h-9z"/></svg>